# xmcd CD database file
# Copyright (C) 1996 Ti Kan
#
# Track frame offsets:
#  150
#  13412
#  27795
#  41022
#  55437
#  67862
#  81035
#  94787
#  107687
#  121955
#  135312
#  149725
#  164687
#  177512
#  190542
#  204312
#
# Disc length: 2894 seconds
#
# Revision: 1
# Processed by: cddbd v1.4b41PL1 Copyright (c) Steve Scherf et al.
# Submitted via: CDWizzard Release:4.12
#
DISCID=de0b4c10
DTITLE=Big Maceo - The Bluebird Recordings 1941 - 1942
DYEAR=1900
DGENRE=
TTITLE0=Worried Life Blues
TTITLE1=Ramblin' Mind Blues
TTITLE2=County Jail Blues
TTITLE3=Can't You Read
TTITLE4=So Long Baby
TTITLE5=Texas Blues
TTITLE6=Tuff Luck Blues
TTITLE7=I Got The Blues
TTITLE8=I'ts All Up To You
TTITLE9=Bye Bye Baby
TTITLE10=Why Should I Hang Around
TTITLE11=Poor Kelly Blues
TTITLE12=Some Sweet Day
TTITLE13=Anytime For You
TTITLE14=My Last Go Around
TTITLE15=Since You Been Gone
EXTD=
EXTT0=
EXTT1=
EXTT2=
EXTT3=
EXTT4=
EXTT5=
EXTT6=
EXTT7=
EXTT8=
EXTT9=
EXTT10=
EXTT11=
EXTT12=
EXTT13=
EXTT14=
EXTT15=
PLAYORDER=
